<svg width="24" height="24" viewBox="0 0 24 24" fill="none" xmlns="http://www.w3.org/2000/svg">
<path fill-rule="evenodd" clip-rule="evenodd" d="M2.99991 3.00977H20.9999C22.0999 3.00977 22.9999 3.90977 22.9999 5.00977V18.9898C22.9999 20.0898 22.0999 20.9898 20.9999 20.9898H2.97991C1.88991 20.9898 0.999908 20.0998 0.999908 19.0098V15.9998C0.999908 15.4498 1.44991 14.9998 1.99991 14.9998C2.54991 14.9998 2.99991 15.4498 2.99991 15.9998V18.0198C2.99991 18.5698 3.44991 19.0198 3.99991 19.0198H19.9999C20.5499 19.0198 20.9999 18.5698 20.9999 18.0198V5.98977C20.9999 5.43977 20.5499 4.98977 19.9999 4.98977H3.99991C3.44991 4.98977 2.99991 5.43977 2.99991 5.98977V7.99977C2.99991 8.54977 2.54991 8.99977 1.99991 8.99977C1.44991 8.99977 0.999908 8.54977 0.999908 7.99977V5.00977C0.999908 3.90977 1.89991 3.00977 2.99991 3.00977ZM14.6399 12.3598L11.8499 15.1498C11.5399 15.4598 10.9999 15.2398 10.9999 14.7898V12.9998H1.99991C1.44991 12.9998 0.999908 12.5498 0.999908 11.9998C0.999908 11.4498 1.44991 10.9998 1.99991 10.9998H10.9999V9.20981C10.9999 8.75981 11.5399 8.53981 11.8499 8.85981L14.6399 11.6498C14.8399 11.8498 14.8399 12.1598 14.6399 12.3598Z" fill="#FF768E"/>
</svg>
