<svg width="36" height="36" viewBox="0 0 36 36" fill="none" xmlns="http://www.w3.org/2000/svg">
<path fill-rule="evenodd" clip-rule="evenodd" d="M18.0002 3C9.72018 3 3.00018 9.72 3.00018 18C3.00018 26.28 9.72018 33 18.0002 33C26.2802 33 33.0002 26.28 33.0002 18C33.0002 9.72 26.2802 3 18.0002 3ZM18 7.5C20.49 7.5 22.5 9.51 22.5 12C22.5 14.49 20.49 16.5 18 16.5C15.51 16.5 13.5 14.49 13.5 12C13.5 9.51 15.51 7.5 18 7.5ZM8.99998 23.9699C10.935 26.8799 14.25 28.7999 18 28.7999C21.75 28.7999 25.065 26.8799 27 23.9699C26.955 20.9849 20.985 19.3499 18 19.3499C15 19.3499 9.04498 20.9849 8.99998 23.9699Z" fill="#9C9C9C"/>
</svg>
